<?xml version="1.0" encoding="UTF-8"?>
<!DOCTYPE svg PUBLIC "-//W3C//DTD SVG 1.1//EN" "http://www.w3.org/Graphics/SVG/1.1/DTD/svg11.dtd">
<!-- Creator: CorelDRAW 2020 (64-Bit) -->
<svg xmlns="http://www.w3.org/2000/svg" xml:space="preserve" width="32mm" height="30.8292mm" version="1.1" style="shape-rendering:geometricPrecision; text-rendering:geometricPrecision; image-rendering:optimizeQuality; fill-rule:evenodd; clip-rule:evenodd"
viewBox="0 0 493.4 475.35"
 xmlns:xlink="http://www.w3.org/1999/xlink"
 xmlns:xodm="http://www.corel.com/coreldraw/odm/2003">
 <defs>
  <style type="text/css">
   <![CDATA[
    .fil0 {fill:url(#id0)}
   ]]>
  </style>
  <linearGradient id="id0" gradientUnits="userSpaceOnUse" x1="78.76" y1="63.35" x2="414.64" y2="412">
   <stop offset="0" style="stop-opacity:1; stop-color:#9A00F9"/>
   <stop offset="1" style="stop-opacity:1; stop-color:#E6000D"/>
  </linearGradient>
 </defs>
 <g id="图层_x0020_1">
  <metadata id="CorelCorpID_0Corel-Layer"/>
  <path class="fil0" d="M306.13 43.27l15.28 47.34c8.48,26.27 31.95,43.32 59.55,43.27l49.74 -0.1c27.56,-0.05 51,16.94 59.52,43.15 8.52,26.21 -0.46,53.74 -22.78,69.89l-40.3 29.16c-22.36,16.18 -31.33,43.78 -22.75,70.01l15.46 47.28c8.57,26.19 -0.35,53.74 -22.65,69.94 -22.3,16.2 -51.25,16.17 -73.52,-0.07l-40.19 -29.32c-21.59,-15.75 -49.48,-16.25 -71.47,-1.5l0 -95.08 0 0 0 -126.79c0,-21.61 1.06,-21.21 23.4,-21.21 7.97,0 15.94,0 23.91,0 21.58,0 38.45,4.84 50.62,14.52 12.17,9.68 18.55,22.83 18.26,39.42 -0.65,37.27 -26.82,37.66 -53.66,42.09 -11.57,1.91 -31.3,16.93 -6.93,49.61l53.24 77.28c23.85,34.68 60,8.86 37.94,-22.4 -13.27,-18.8 -27.15,-38.96 -40.26,-57.87 -3.26,-4.7 1.47,-7.66 2.4,-8.1 15.4,-7.29 28.26,-16.4 37.77,-29.15 10.93,-14.66 16.39,-31.81 16.39,-51.46 0,-18.26 -4.63,-34.37 -13.9,-48.34 -9.27,-13.97 -22.27,-24.83 -39.01,-32.58 -16.74,-7.74 -35.89,-11.62 -57.47,-11.62l-67.98 0c-20.41,0 -29.12,8.9 -29.12,24.97l0 288.96c-21.97,14.78 -49.83,14.32 -71.44,-1.38 -22.3,-16.2 -31.22,-43.74 -22.65,-69.94l15.46 -47.28c8.58,-26.24 -0.39,-53.83 -22.75,-70.01l-40.3 -29.16c-22.33,-16.16 -31.3,-43.68 -22.78,-69.89 8.52,-26.21 31.96,-43.21 59.52,-43.15l49.74 0.1c27.6,0.05 51.07,-17 59.55,-43.27l15.28 -47.34c8.47,-26.23 31.87,-43.27 59.43,-43.27 27.56,0 50.97,17.04 59.43,43.27z"/>
 </g>
</svg>
